<!-- icon666.com - MILLIONS vector ICONS FREE --><svg id="element" viewBox="0 0 500 500" xmlns="http://www.w3.org/2000/svg"><path d="m139.953 279.49a141.81 141.81 0 0 1 30-14.282 9.673 9.673 0 0 0 6.079-6.413l6.19-21.2a3.016 3.016 0 0 0 -3.825-3.712c-55.623 16.136-140.762 71.817-125.385 138.776 12.881 56.568 79.366 81.514 131.776 66.826q.826 1.5 1.669 2.983a6.132 6.132 0 0 1 -2.393 8.44c-5.949 3.209-14.738 8.357-20.844 15.247-3.981 6 .8 26.847 17.655 17.769 10.493-5.65 22.176-7.638 30.769-8.312 7.04-.615 11.345-9.09 13.615-15.242 2.684-8.1 1.692-15.6 1.6-23.886-.032-2.816 4.357-3.327 4.8-.65 4.287 25.774-7.739 39.5-7.524 39.486-2.182 4.2-3.074 8.144-1.744 12.618 1.55 8.231 12.547 7.559 19.3 7.414 4-.086 12.837.577 16.345-3.007 9.339-5.749 4.819-27.411 4.067-34.148a356.982 356.982 0 0 1 -2-39.625c0-24.876 2.042-49.724 1.436-74.6-.071-2.934 4.449-2.916 4.547 0 .812 24.343-.963 48.666-.932 73.008.017 13.194 2.9 46.979 3.473 50.7a2.954 2.954 0 0 0 4 2.329c4.841-2.175 11.207-.386 14.836 3.411 4.593 4.661 2.3 20.369 22.869 21.939 14.948 1.141 19.775-3.035 20.758-7.678 1.206-6.627-5.847-10.631-9.547-15.04a40.379 40.379 0 0 1 -8.968-13.553c-5.107-13.235-6.678-28.7-7.9-42.752-.3-3.4 5.066-3.262 5.178.217a82.946 82.946 0 0 0 2.009 17.565c2.049 8.185 2.373 18.234 6.882 26.014 11.18 19.289 42.955 25.45 51.1 28.46a7.46 7.46 0 0 0 9.194-3.411 17.9 17.9 0 0 0 -7.666-23.824c-3-1.589-6.174-3.277-9.212-4.912a17.049 17.049 0 0 1 -7.133-22.812c17.492-33.745 27.969-71.83 26.394-109.85-.421-4.009.442-22.33-6.545-17.806-1.432 1.032-3.312 5.018-4.358 5.078-.729 0-3.72-2.6-4.515-3.147a42.589 42.589 0 0 1 -10.121-9.549c-6.523-9.8-6.408-22-8.941-33.009-3.258-16.672-7.107-33.423-11.95-49.87 60.887-16.52 94.713-33.753 110.236-86.13 3.617-12.2 5.448-30.8.893-43.432-3.847-10.672-29.148-13.918-23.954 12.986 3.108 16.1-6.991 80.636-95.719 93.6-3-7.444-9.025-24.5-12.643-31.651 3.009-4.269 5.681-8.517 8.713-12.535a138.854 138.854 0 0 1 22.983 5.382c3.731 1.219 5.393-4.763 1.622-5.884a147.559 147.559 0 0 0 -20.456-4.529c7.556-7.91 17.973-15.436 28.888-17.61 6.913-.177 13.852.483 20.729.061 3.139-.193 4.187-5.019.781-5.769-7.629-1.673-15.938-1.125-23.683-.64a15.629 15.629 0 0 1 -4.37-1.536c-.472-.262-4.344-3.095-4.335-3.116a2.734 2.734 0 0 0 .122-.368c4.2-2.181 7.619-5.713 11.61-8.283a3.132 3.132 0 0 0 -.737-5.643 67.784 67.784 0 0 1 -8.1-3.39c-.22-.307-.43-.625-.636-.949a161.452 161.452 0 0 1 26.1-14.592c3.968-1.756.537-7.681-3.426-5.862a163.851 163.851 0 0 0 -25.416 14.55c-8.933-26.559 8.5-81.834 8.241-82.207.6-2.713-3.886-4.8-6.139-2.162-4 4.689-7.247 9-12.561 12.311-13.009 7.974-29.907 11.629-38.686 25.071-17.2-4.821-36.168-7.94-53.071.507-8.653-13.836-25.84-17.51-39.011-25.578-5.321-3.317-14.467-13.2-14.467-13.2-1.74-1.345-4.574.621-4.593 4.65-.017 3.62 19 59.157 7.343 83.8a163.846 163.846 0 0 0 -29.854-17.552c-3.967-1.8-7.405 4.124-3.426 5.861a161.651 161.651 0 0 1 28.958 16.4c-1.851.833-3.806 1.6-5.906 2.344a3.131 3.131 0 0 0 -.738 5.642c3.991 2.57 7.409 6.1 11.61 8.283a2.746 2.746 0 0 0 .122.369c.009.021-3.863 2.854-4.335 3.116a17.176 17.176 0 0 1 -5.177 1.7c-9.337-.894-19.07-2.159-28.4-.75-3.548.559-2.207 5.423.78 5.768 8.8.988 17.811.227 26.633 1.269 10.481 2.09 20.534 9.394 27.908 16.864a146.6 146.6 0 0 0 -25.746 5.287c-3.761 1.13-2.11 7.114 1.622 5.884a138.946 138.946 0 0 1 28.39-6.145c3.237 4.207 6.035 8.678 9.206 13.178-25.907 38.106-35.38 138-56.53 149.835q-.345 1.482-.875-.029c-9.463-15.04-9.944 4.9-10.171 12.2-.368 12.03-.322 23.5 1.775 35.685 2.426 16.453 10.587 41.268 16.391 56.732 0 0-71.921 16.662-91.678-48.217-10.598-34.781 29.843-70.044 58.145-87.566zm199.958-243.636c-4.356 16.288-8.314 33.079-5.695 50.057-4.415-7.436-11.329-14.083-12.526-22.958-.242-11.371 11.759-19.219 18.221-27.099zm-58.584 70.392c.76-9.119 14.523-20.311 21.355-10.259 5.709 8.134-4.987 25.075-14.894 21.838-5.258-.706-7.115-6.961-6.461-11.579zm-9.8 67.494a22.984 22.984 0 0 1 20.043 8.092.7.7 0 0 1 -.9 1.056 15.905 15.905 0 0 0 -23.885 12.726c-1.01 12.557 13.293 21.2 23.872 14.766a.706.706 0 0 1 .9 1.058 22.966 22.966 0 0 1 -17.618 8.207c-28.917-.791-31.151-42.015-2.416-45.905zm-37.5-77.753c6.836-10.051 20.592 1.138 21.356 10.259.656 4.618-1.2 10.873-6.461 11.579-9.906 3.237-20.607-13.699-14.898-21.838zm-31.562-10.068c2.616-16.961-1.322-33.783-5.69-50.065 21.483 21.559 24.178 25.31 5.69 50.065z" fill="#000000" style="fill: rgb(100, 79, 79);"></path></svg>